#!OML:ASF F:\VICON\USERDATA\INSTALL\rory3\rory3.ASF
:FULLY-SPECIFIED
:DEGREES
647
root -2.29126 30.0119 -7.76613 -177.412 -16.4481 181.787
lowerback 9.47844 0.443804 -4.08575
upperback 1.36992 -0.0123071 -1.22524
thorax -3.89418 -0.0123882 1.03091
lowerneck -9.03402 1.76504 -6.20159
upperneck 26.9127 0.522468 5.73282
head 9.93576 -0.371964 3.03769
rclavicle -5.98342e-014 -1.59028e-014
rhumerus -34.6967 0.824043 -81.6524
rradius 35.5214
rwrist 14.9264
rhand -29.023 6.87572
rfingers 7.12502
rthumb -2.3739 -23.0908
lclavicle -5.98342e-014 -1.59028e-014
lhumerus -26.1591 11.4743 79.8371
lradius 23.313
lwrist -0.555425
lhand -28.2588 19.1927
lfingers 7.12502
lthumb -1.63586 49.1662
rfemur -17.9371 29.2845 13.916
rtibia 30.5059
rfoot -19.4551 -9.72028
rtoes -0.428089
lfemur -12.3126 -7.2041 -21.6588
ltibia 21.3101
lfoot -13.886 6.03163
ltoes 1.34657
648
root -2.27033 30.0146 -7.76909 -177.393 -16.9996 181.672
lowerback 9.54492 0.453935 -4.10982
upperback 1.39442 -0.00917382 -1.26996
thorax -3.90594 -0.0121926 0.99757
lowerneck -9.15607 1.72782 -6.18681
upperneck 26.925 0.491404 5.73817
head 9.96655 -0.37577 3.0367
rclavicle 1.72943e-014 3.33958e-014
rhumerus -34.6518 0.664799 -81.592
rradius 35.2836
rwrist 15.4192
rhand -28.8516 6.82575
rfingers 7.12502
rthumb -2.20835 -23.1426
lclavicle 1.72943e-014 3.33958e-014
lhumerus -26.0869 11.5078 79.8689
lradius 23.413
lwrist -0.687499
lhand -28.2881 20.0842
lfingers 7.12502
lthumb -1.66418 50.0575
rfemur -18.0311 29.3099 13.6726
rtibia 30.3286
rfoot -19.5578 -9.31049
rtoes -0.20205
lfemur -12.2572 -7.22066 -21.6886
ltibia 21.1121
lfoot -13.859 5.56772
ltoes 0.898392
649
root -2.25091 30.0156 -7.77739 -177.318 -17.4696 181.436
lowerback 9.53899 0.505611 -4.25847
upperback 1.40524 0.0379087 -1.34515
thorax -3.89392 0.0107899 0.996923
lowerneck -9.2669 1.69901 -6.19519
upperneck 26.9582 0.463836 5.77276
head 10.0019 -0.378956 3.05062
rclavicle 2.56432e-014 2.94201e-014
rhumerus -34.6676 0.543522 -81.4943
rradius 35.1213
rwrist 15.9842
rhand -28.7265 6.99793
rfingers 7.12502
rthumb -2.08759 -22.9716
lclavicle 2.56432e-014 2.94201e-014
lhumerus -26.095 11.3728 79.9086
lradius 23.5036
lwrist -0.642345
lhand -28.1798 20.2201
lfingers 7.12502
lthumb -1.5596 50.1941
rfemur -18.1132 29.4335 13.3237
rtibia 30.1399
rfoot -19.7122 -9.10743
rtoes -0.440611
lfemur -12.1882 -7.25027 -21.8552
ltibia 20.9344
lfoot -13.9216 5.18405
ltoes 0.337643
650
root -2.22709 30.0122 -7.78742 -177.235 -17.9133 181.188
lowerback 9.55927 0.575984 -4.4711
upperback 1.38763 0.102587 -1.40265
thorax -3.9273 0.0451503 1.04804
lowerneck -9.34742 1.68137 -6.34196
upperneck 27.0094 0.4446 5.9108
head 10.0353 -0.383554 3.12607
rclavicle -1.88845e-014 2.06736e-014
rhumerus -34.6762 0.543693 -81.4311
rradius 34.8624
rwrist 16.127
rhand -28.6168 7.15193
rfingers 7.12502
rthumb -1.98166 -22.8186
lclavicle -1.88845e-014 2.06736e-014
lhumerus -26.1634 11.2222 79.9452
lradius 23.5028
lwrist -0.38239
lhand -28.14 19.0116
lfingers 7.12502
lthumb -1.5211 48.9859
rfemur -18.165 29.5537 12.982
rtibia 29.921
rfoot -19.8782 -8.85292
rtoes -0.892306
lfemur -12.1515 -7.33113 -22.0078
ltibia 20.8055
lfoot -14.0719 4.90164
ltoes -0.327927
651
root -2.19997 30.0094 -7.79384 -177.241 -18.3675 181.137
lowerback 9.62542 0.633177 -4.53852
upperback 1.40269 0.167219 -1.3939
thorax -3.95203 0.0778398 1.08645
lowerneck -9.49994 1.62881 -6.41736
upperneck 27.1323 0.377974 5.9734
head 10.1138 -0.412766 3.15962
rclavicle -3.06128e-014 -1.03368e-014
rhumerus -34.5799 0.459272 -81.3888
rradius 34.4603
rwrist 16.2662
rhand -28.4942 7.28457
rfingers 7.12502
rthumb -1.86318 -22.687
lclavicle -3.06128e-014 -1.03368e-014
lhumerus -26.1634 11.1558 79.9686
lradius 23.531
lwrist -0.258071
lhand -27.9988 18.6942
lfingers 7.12502
lthumb -1.38477 48.6695
rfemur -18.1843 29.6971 12.8701
rtibia 29.6955
rfoot -20.0365 -8.61214
rtoes -1.32862
lfemur -12.1016 -7.45802 -21.9409
ltibia 20.6564
lfoot -14.2197 4.69958
ltoes -1.34338
652
root -2.176 30.0097 -7.8012 -177.265 -18.7957 181.259
lowerback 9.64084 0.686354 -4.3948
upperback 1.37346 0.256408 -1.36337
thorax -3.99501 0.123087 1.02572
lowerneck -9.44541 1.59286 -6.32417
upperneck 27.1145 0.347639 5.84689
head 10.1011 -0.428277 3.09448
rclavicle 4.77083e-015 -1.66979e-014
rhumerus -34.5311 0.32093 -81.3516
rradius 34.0423
rwrist 16.5541
rhand -28.555 7.54276
rfingers 7.12502
rthumb -1.92189 -22.4283
lclavicle 4.77083e-015 -1.66979e-014
lhumerus -26.1723 11.2357 79.9304
lradius 23.5202
lwrist -0.40356
lhand -27.8429 19.0313
lfingers 7.12502
lthumb -1.23419 49.0075
rfemur -18.2575 29.8221 12.9049
rtibia 29.4358
rfoot -20.1485 -8.24465
rtoes -1.44855
lfemur -12.0999 -7.5897 -21.6961
ltibia 20.5205
lfoot -14.4467 4.5463
ltoes -2.9216
653
root -2.15733 30.0142 -7.81261 -177.261 -19.2493 181.188
lowerback 9.59306 0.722664 -4.36168
upperback 1.37675 0.310405 -1.38704
thorax -3.96734 0.148818 0.975819
lowerneck -9.3565 1.62162 -6.2694
upperneck 27.0322 0.433802 5.69269
head 10.0498 -0.39383 3.03726
rclavicle 6.89783e-014 -3.10104e-014
rhumerus -34.4303 0.240088 -81.2911
rradius 33.6045
rwrist 16.9146
rhand -28.7434 7.63424
rfingers 7.12502
rthumb -2.10391 -22.3351
lclavicle 6.89783e-014 -3.10104e-014
lhumerus -26.2561 11.3066 79.8674
lradius 23.526
lwrist -0.280249
lhand -27.9939 18.6479
lfingers 7.12502
lthumb -1.38002 48.6232
rfemur -18.2592 29.961 12.7593
rtibia 29.1378
rfoot -20.2454 -7.87362
rtoes -1.42753
lfemur -12.0425 -7.70974 -21.6841
ltibia 20.426
lfoot -14.7336 4.39317
ltoes -4.7031
654
root -2.13538 30.0194 -7.82571 -177.317 -19.7123 181.152
lowerback 9.57749 0.773393 -4.33027
upperback 1.44457 0.382591 -1.37615
thorax -3.89134 0.180989 0.960769
lowerneck -9.48012 1.65654 -6.40145
upperneck 27.0654 0.535781 5.69731
head 10.0781 -0.351766 3.07621
rclavicle 5.80451e-014 2.38542e-014
rhumerus -34.2771 0.00626399 -81.1472
rradius 33.2444
rwrist 17.325
rhand -28.6531 7.5104
rfingers 7.12502
rthumb -2.01668 -22.4598
lclavicle 5.80451e-014 2.38542e-014
lhumerus -26.1761 11.3504 79.8361
lradius 23.3742
lwrist -0.203585
lhand -28.0074 18.8357
lfingers 7.12502
lthumb -1.39307 48.8109
rfemur -18.1693 30.2702 12.7075
rtibia 28.8324
rfoot -20.35 -7.77851
rtoes -2.20781
lfemur -11.9326 -7.81375 -21.6207
ltibia 20.3349
lfoot -14.9123 4.0695
ltoes -5.37873
655
root -2.10923 30.0193 -7.83795 -177.295 -20.1739 181.153
lowerback 9.55135 0.820181 -4.27451
upperback 1.4621 0.453037 -1.37618
thorax -3.86145 0.214537 0.92071
lowerneck -9.76732 1.67813 -6.67604
upperneck 27.3021 0.551635 6.00525
head 10.214 -0.338164 3.24548
rclavicle 1.43125e-014 2.06736e-014
rhumerus -34.2047 -0.200333 -81.0627
rradius 33.0108
rwrist 17.6315
rhand -28.277 7.42563
rfingers 7.12502
rthumb -1.65343 -22.5477
lclavicle 1.43125e-014 2.06736e-014
lhumerus -26.0683 11.5009 79.749
lradius 23.218
lwrist -0.303483
lhand -27.9147 19.2487
lfingers 7.12502
lthumb -1.30355 49.2245
rfemur -18.1669 30.4862 12.6591
rtibia 28.5267
rfoot -20.47 -7.58625
rtoes -3.08537
lfemur -11.97 -7.83624 -21.5
ltibia 20.2667
lfoot -14.9577 3.69237
ltoes -5.99337
656
root -2.08256 30.0141 -7.8507 -177.157 -20.6006 180.947
lowerback 9.47393 0.846319 -4.46115
upperback 1.41722 0.469777 -1.43067
thorax -3.86716 0.225932 0.966898
lowerneck -9.76608 1.75997 -6.70712
upperneck 27.3708 0.654066 6.07266
head 10.2297 -0.288173 3.28805
rclavicle -4.57205e-015 7.95139e-016
rhumerus -34.1633 -0.0505994 -81.1199
rradius 32.7473
rwrist 17.6345
rhand -28.2279 7.43709
rfingers 7.12502
rthumb -1.606 -22.5366
lclavicle -4.57205e-015 7.95139e-016
lhumerus -26.1553 11.7236 79.5765
lradius 23.1216
lwrist -0.438473
lhand -28.0099 19.428
lfingers 7.12502
lthumb -1.39544 49.4032
rfemur -18.1893 30.4299 12.4074
rtibia 28.2374
rfoot -20.4756 -7.10098
rtoes -3.69541
lfemur -12.0788 -7.82211 -21.5928
ltibia 20.2508
lfoot -14.9867 3.35092
ltoes -6.82567
657
root -2.05814 30.0064 -7.86337 -177.066 -20.9956 180.78
lowerback 9.44659 0.899889 -4.54839
upperback 1.34248 0.528918 -1.50566
thorax -3.93305 0.258651 0.929892
lowerneck -9.43867 1.82195 -6.46519
upperneck 27.1749 0.766251 5.79066
head 10.0912 -0.239777 3.14839
rclavicle 2.78299e-015 -3.4191e-014
rhumerus -34.1907 -0.0888482 -81.1319
rradius 32.5175
rwrist 17.6632
rhand -28.0432 7.02072
rfingers 7.12502
rthumb -1.42767 -22.9542
lclavicle 2.78299e-015 -3.4191e-014
lhumerus -26.3105 11.8004 79.3903
lradius 23.0119
lwrist -0.5142
lhand -28.2238 19.4623
lfingers 7.12502
lthumb -1.60205 49.436
rfemur -18.1361 30.4053 12.2342
rtibia 27.9856
rfoot -20.5224 -6.59328
rtoes -4.66022
lfemur -12.1491 -7.89038 -21.6588
ltibia 20.2485
lfoot -15.067 3.0709
ltoes -7.59935
658
root -2.03461 30.0018 -7.87663 -176.945 -21.4345 180.491
lowerback 9.40718 0.970356 -4.71475
upperback 1.3335 0.601157 -1.58583
thorax -3.92523 0.294923 0.930875
lowerneck -9.32852 1.83475 -6.24648
upperneck 27.0897 0.834716 5.48221
head 10.0399 -0.214167 3.00527
rclavicle 4.57205e-015 2.3059e-014
rhumerus -34.1724 -0.0791927 -81.0747
rradius 32.3556
rwrist 17.6794
rhand -27.8676 6.92009
rfingers 7.12502
rthumb -1.25804 -23.0559
lclavicle 4.57205e-015 2.3059e-014
lhumerus -26.2945 11.9776 79.2781
lradius 22.8319
lwrist -0.679847
lhand -28.2768 19.1483
lfingers 7.12502
lthumb -1.65322 49.1217
rfemur -18.0918 30.4002 11.9433
rtibia 27.7704
rfoot -20.562 -6.13127
rtoes -5.72884
lfemur -12.1931 -7.82171 -21.8648
ltibia 20.2204
lfoot -15.041 2.5932
ltoes -8.36668
659
root -2.01194 30.0022 -7.89178 -176.891 -21.8876 180.246
lowerback 9.37054 1.0289 -4.84447
upperback 1.38252 0.663427 -1.63439
thorax -3.85802 0.323341 0.946038
lowerneck -9.52683 1.83572 -6.22708
upperneck 27.2624 0.836527 5.503
head 10.1414 -0.208369 3.01659
rclavicle -3.81667e-014 2.70347e-014
rhumerus -34.1048 -0.258567 -80.9541
rradius 32.1837
rwrist 17.9605
rhand -28.0329 7.13663
rfingers 7.12502
rthumb -1.41768 -22.8384
lclavicle -3.81667e-014 2.70347e-014
lhumerus -26.288 11.9795 79.2594
lradius 22.7801
lwrist -0.517623
lhand -28.6033 18.8771
lfingers 7.12502
lthumb -1.96854 48.8478
rfemur -18.028 30.5479 11.6847
rtibia 27.5495
rfoot -20.6463 -5.45823
rtoes -4.66636
lfemur -12.1665 -7.78222 -22.0333
ltibia 20.2011
lfoot -15.0277 2.10811
ltoes -8.89844
660
root -1.99009 30.0024 -7.90508 -176.847 -22.2843 180.2
lowerback 9.30109 1.05578 -4.75195
upperback 1.39316 0.712645 -1.66447
thorax -3.80921 0.345429 0.857693
lowerneck -9.70791 1.85308 -6.11454
upperneck 27.3983 0.852958 5.49183
head 10.2265 -0.18888 3.001
rclavicle 3.24019e-014 1.03368e-014
rhumerus -34.0214 -0.384267 -80.8974
rradius 32.0027
rwrist 18.1488
rhand -28.0875 7.27849
rfingers 7.12502
rthumb -1.47038 -22.6962
lclavicle 3.24019e-014 1.03368e-014
lhumerus -26.3822 11.9438 79.1659
lradius 22.8584
lwrist -0.243413
lhand -28.7877 18.6534
lfingers 7.12502
lthumb -2.14671 48.6223
rfemur -18.0619 30.791 11.5778
rtibia 27.3096
rfoot -20.7535 -4.81094
rtoes -3.00283
lfemur -12.2088 -7.95729 -21.9697
ltibia 20.2041
lfoot -15.0603 1.84036
ltoes -9.42786
661
root -1.96299 29.9998 -7.91469 -176.792 -22.643 180.186
lowerback 9.26065 1.10308 -4.67617
upperback 1.38667 0.784732 -1.69696
thorax -3.79555 0.380044 0.772878
lowerneck -9.77946 1.87239 -5.86455
upperneck 27.3953 0.909649 5.27161
head 10.2408 -0.155006 2.88705
rclavicle -2.28602e-014 -5.96354e-014
rhumerus -33.8678 -0.419011 -80.9014
rradius 31.8303
rwrist 18.1533
rhand -28.0353 6.97346
rfingers 7.12502
rthumb -1.41999 -23.0016
lclavicle -2.28602e-014 -5.96354e-014
lhumerus -26.3889 11.7876 79.0989
lradius 22.9084
lwrist 0.310389
lhand -28.8296 19.3238
lfingers 7.12502
lthumb -2.18718 49.2924
rfemur -18.1172 31.1002 11.5108
rtibia 27.0705
rfoot -20.787 -4.44051
rtoes -3.13539
lfemur -12.3114 -8.05105 -21.8547
ltibia 20.1977
lfoot -15.0416 1.58761
ltoes -9.73525
